<mxfile host="app.diagrams.net" modified="2023-05-21T13:44:56.767Z" agent="Mozilla/5.0 (Macintosh; Intel Mac OS X 10_15_7) AppleWebKit/537.36 (KHTML, like Gecko) Chrome/113.0.0.0 Safari/537.36" etag="agKzxTJIWnMWuFaN8pbW" version="21.2.1" type="device">
  <diagram name="Page-1" id="RLe9Pu-XleteGbE55Lmo">
    <mxGraphModel dx="2234" dy="1086" grid="0" gridSize="10" guides="1" tooltips="1" connect="1" arrows="1" fold="1" page="0" pageScale="1" pageWidth="850" pageHeight="1100" math="0" shadow="0">
      <root>
        <mxCell id="0" />
        <mxCell id="1" parent="0" />
        <mxCell id="oVY2FOJyRuug9K2mcCUp-1" value="" style="rounded=0;whiteSpace=wrap;html=1;" parent="1" vertex="1">
          <mxGeometry x="37" y="164" width="358" height="413" as="geometry" />
        </mxCell>
        <mxCell id="gPVhK3_kvV09GFw_WB84-14" style="edgeStyle=orthogonalEdgeStyle;rounded=0;orthogonalLoop=1;jettySize=auto;html=1;exitX=0;exitY=0.5;exitDx=0;exitDy=0;exitPerimeter=0;" parent="1" source="oVY2FOJyRuug9K2mcCUp-2" target="gPVhK3_kvV09GFw_WB84-13" edge="1">
          <mxGeometry relative="1" as="geometry" />
        </mxCell>
        <mxCell id="oVY2FOJyRuug9K2mcCUp-2" value="Databases" style="shape=cylinder3;whiteSpace=wrap;html=1;boundedLbl=1;backgroundOutline=1;size=15;" parent="1" vertex="1">
          <mxGeometry x="186.5" y="487" width="67" height="78" as="geometry" />
        </mxCell>
        <mxCell id="oVY2FOJyRuug9K2mcCUp-3" value="Ecommerce Website" style="rounded=0;whiteSpace=wrap;html=1;" parent="1" vertex="1">
          <mxGeometry x="97" y="261" width="123" height="50" as="geometry" />
        </mxCell>
        <mxCell id="oVY2FOJyRuug9K2mcCUp-4" value="Real-time analytics" style="rounded=0;whiteSpace=wrap;html=1;" parent="1" vertex="1">
          <mxGeometry x="255" y="258" width="114" height="56" as="geometry" />
        </mxCell>
        <mxCell id="oVY2FOJyRuug9K2mcCUp-5" value="Inventory Management" style="rounded=0;whiteSpace=wrap;html=1;" parent="1" vertex="1">
          <mxGeometry x="160" y="357" width="120" height="60" as="geometry" />
        </mxCell>
        <mxCell id="oVY2FOJyRuug9K2mcCUp-6" value="Region 2" style="text;html=1;strokeColor=none;fillColor=none;align=center;verticalAlign=middle;whiteSpace=wrap;rounded=0;" parent="1" vertex="1">
          <mxGeometry x="71" y="180" width="60" height="30" as="geometry" />
        </mxCell>
        <mxCell id="oVY2FOJyRuug9K2mcCUp-7" value="" style="rounded=0;whiteSpace=wrap;html=1;" parent="1" vertex="1">
          <mxGeometry x="-531" y="166" width="358" height="413" as="geometry" />
        </mxCell>
        <mxCell id="oVY2FOJyRuug9K2mcCUp-13" style="edgeStyle=orthogonalEdgeStyle;rounded=0;orthogonalLoop=1;jettySize=auto;html=1;exitX=0.5;exitY=1;exitDx=0;exitDy=0;exitPerimeter=0;entryX=0.5;entryY=1;entryDx=0;entryDy=0;entryPerimeter=0;" parent="1" source="oVY2FOJyRuug9K2mcCUp-8" target="oVY2FOJyRuug9K2mcCUp-2" edge="1">
          <mxGeometry relative="1" as="geometry" />
        </mxCell>
        <mxCell id="oVY2FOJyRuug9K2mcCUp-14" value="Real time data synchronisation" style="edgeLabel;html=1;align=center;verticalAlign=middle;resizable=0;points=[];" parent="oVY2FOJyRuug9K2mcCUp-13" vertex="1" connectable="0">
          <mxGeometry x="-0.0328" y="-1" relative="1" as="geometry">
            <mxPoint as="offset" />
          </mxGeometry>
        </mxCell>
        <mxCell id="gPVhK3_kvV09GFw_WB84-12" style="edgeStyle=orthogonalEdgeStyle;rounded=0;orthogonalLoop=1;jettySize=auto;html=1;exitX=0;exitY=0.5;exitDx=0;exitDy=0;exitPerimeter=0;" parent="1" source="oVY2FOJyRuug9K2mcCUp-8" target="gPVhK3_kvV09GFw_WB84-11" edge="1">
          <mxGeometry relative="1" as="geometry" />
        </mxCell>
        <mxCell id="oVY2FOJyRuug9K2mcCUp-8" value="Databases" style="shape=cylinder3;whiteSpace=wrap;html=1;boundedLbl=1;backgroundOutline=1;size=15;" parent="1" vertex="1">
          <mxGeometry x="-381.5" y="489" width="67" height="78" as="geometry" />
        </mxCell>
        <mxCell id="oVY2FOJyRuug9K2mcCUp-9" value="Ecommerce Website" style="rounded=0;whiteSpace=wrap;html=1;" parent="1" vertex="1">
          <mxGeometry x="-471" y="263" width="123" height="50" as="geometry" />
        </mxCell>
        <mxCell id="oVY2FOJyRuug9K2mcCUp-10" value="Real-time analytics" style="rounded=0;whiteSpace=wrap;html=1;" parent="1" vertex="1">
          <mxGeometry x="-313" y="260" width="114" height="56" as="geometry" />
        </mxCell>
        <mxCell id="oVY2FOJyRuug9K2mcCUp-11" value="Inventory Management" style="rounded=0;whiteSpace=wrap;html=1;" parent="1" vertex="1">
          <mxGeometry x="-408" y="359" width="120" height="60" as="geometry" />
        </mxCell>
        <mxCell id="oVY2FOJyRuug9K2mcCUp-12" value="Region 1" style="text;html=1;strokeColor=none;fillColor=none;align=center;verticalAlign=middle;whiteSpace=wrap;rounded=0;" parent="1" vertex="1">
          <mxGeometry x="-497" y="182" width="60" height="30" as="geometry" />
        </mxCell>
        <mxCell id="gPVhK3_kvV09GFw_WB84-2" style="edgeStyle=orthogonalEdgeStyle;rounded=0;orthogonalLoop=1;jettySize=auto;html=1;exitX=0;exitY=0.5;exitDx=0;exitDy=0;entryX=0.5;entryY=0;entryDx=0;entryDy=0;" parent="1" source="gPVhK3_kvV09GFw_WB84-1" target="oVY2FOJyRuug9K2mcCUp-7" edge="1">
          <mxGeometry relative="1" as="geometry" />
        </mxCell>
        <mxCell id="gPVhK3_kvV09GFw_WB84-4" value="Primary Region" style="edgeLabel;html=1;align=center;verticalAlign=middle;resizable=0;points=[];" parent="gPVhK3_kvV09GFw_WB84-2" vertex="1" connectable="0">
          <mxGeometry x="-0.0074" y="1" relative="1" as="geometry">
            <mxPoint as="offset" />
          </mxGeometry>
        </mxCell>
        <mxCell id="gPVhK3_kvV09GFw_WB84-3" style="edgeStyle=orthogonalEdgeStyle;rounded=0;orthogonalLoop=1;jettySize=auto;html=1;exitX=1;exitY=0.5;exitDx=0;exitDy=0;entryX=0.5;entryY=0;entryDx=0;entryDy=0;" parent="1" source="gPVhK3_kvV09GFw_WB84-1" target="oVY2FOJyRuug9K2mcCUp-1" edge="1">
          <mxGeometry relative="1" as="geometry" />
        </mxCell>
        <mxCell id="gPVhK3_kvV09GFw_WB84-5" value="Failover Region" style="edgeLabel;html=1;align=center;verticalAlign=middle;resizable=0;points=[];" parent="gPVhK3_kvV09GFw_WB84-3" vertex="1" connectable="0">
          <mxGeometry x="-0.2414" relative="1" as="geometry">
            <mxPoint x="16" as="offset" />
          </mxGeometry>
        </mxCell>
        <mxCell id="gPVhK3_kvV09GFw_WB84-16" style="edgeStyle=orthogonalEdgeStyle;rounded=0;orthogonalLoop=1;jettySize=auto;html=1;exitX=0.5;exitY=1;exitDx=0;exitDy=0;entryX=0.5;entryY=0;entryDx=0;entryDy=0;startArrow=classic;startFill=1;" parent="1" source="gPVhK3_kvV09GFw_WB84-1" target="gPVhK3_kvV09GFw_WB84-15" edge="1">
          <mxGeometry relative="1" as="geometry" />
        </mxCell>
        <mxCell id="gPVhK3_kvV09GFw_WB84-1" value="" style="image;html=1;image=img/lib/clip_art/networking/Router_Icon_128x128.png" parent="1" vertex="1">
          <mxGeometry x="-118" y="88" width="80" height="80" as="geometry" />
        </mxCell>
        <mxCell id="gPVhK3_kvV09GFw_WB84-8" value="" style="edgeStyle=orthogonalEdgeStyle;rounded=0;orthogonalLoop=1;jettySize=auto;html=1;" parent="1" source="gPVhK3_kvV09GFw_WB84-6" target="gPVhK3_kvV09GFw_WB84-1" edge="1">
          <mxGeometry relative="1" as="geometry" />
        </mxCell>
        <mxCell id="gPVhK3_kvV09GFw_WB84-9" value="" style="edgeStyle=orthogonalEdgeStyle;rounded=0;orthogonalLoop=1;jettySize=auto;html=1;" parent="1" source="gPVhK3_kvV09GFw_WB84-6" target="gPVhK3_kvV09GFw_WB84-1" edge="1">
          <mxGeometry relative="1" as="geometry" />
        </mxCell>
        <mxCell id="gPVhK3_kvV09GFw_WB84-6" value="User" style="shape=umlActor;verticalLabelPosition=bottom;verticalAlign=top;html=1;outlineConnect=0;" parent="1" vertex="1">
          <mxGeometry x="-93" y="-23" width="30" height="60" as="geometry" />
        </mxCell>
        <mxCell id="gPVhK3_kvV09GFw_WB84-10" value="Router switches to failover region automatically when the primary region is unavailable" style="shape=callout;whiteSpace=wrap;html=1;perimeter=calloutPerimeter;" parent="1" vertex="1">
          <mxGeometry x="-46" y="13" width="279" height="80" as="geometry" />
        </mxCell>
        <mxCell id="gPVhK3_kvV09GFw_WB84-11" value="Backup" style="shape=cylinder3;whiteSpace=wrap;html=1;boundedLbl=1;backgroundOutline=1;size=15;" parent="1" vertex="1">
          <mxGeometry x="-493" y="489" width="67" height="78" as="geometry" />
        </mxCell>
        <mxCell id="gPVhK3_kvV09GFw_WB84-13" value="Backup" style="shape=cylinder3;whiteSpace=wrap;html=1;boundedLbl=1;backgroundOutline=1;size=15;" parent="1" vertex="1">
          <mxGeometry x="76" y="487" width="67" height="78" as="geometry" />
        </mxCell>
        <mxCell id="gPVhK3_kvV09GFw_WB84-17" style="edgeStyle=orthogonalEdgeStyle;rounded=0;orthogonalLoop=1;jettySize=auto;html=1;exitX=0;exitY=0.5;exitDx=0;exitDy=0;entryX=1;entryY=0.25;entryDx=0;entryDy=0;" parent="1" source="gPVhK3_kvV09GFw_WB84-15" target="oVY2FOJyRuug9K2mcCUp-7" edge="1">
          <mxGeometry relative="1" as="geometry" />
        </mxCell>
        <mxCell id="gPVhK3_kvV09GFw_WB84-15" value="Health check Primary region" style="rounded=1;whiteSpace=wrap;html=1;" parent="1" vertex="1">
          <mxGeometry x="-138" y="208" width="120" height="60" as="geometry" />
        </mxCell>
        <mxCell id="0m2XfL6Xtwo850l7YDAz-1" value="The services are running warm and in full capacity" style="shape=callout;whiteSpace=wrap;html=1;perimeter=calloutPerimeter;" vertex="1" parent="1">
          <mxGeometry x="236" y="178" width="120" height="80" as="geometry" />
        </mxCell>
      </root>
    </mxGraphModel>
  </diagram>
</mxfile>
